<svg xmlns="http://www.w3.org/2000/svg" viewBox="0 0 282 39">
  <path fill-rule="evenodd" clip-rule="evenodd" d="M17.582 9.999a2.65 2.65 0 0 1 2.012.92c.22.255.365.526.535.817a4527.063 4527.063 0 0 1 11.433 19.658l.006.012c.233.402.452.783.717 1.086.04.045.08.09.126.137l.003.003c1.532 1.551 4.13 1.513 5.64-.065a3.492 3.492 0 0 0 .525-.68c.217-.341.425-.724.63-1.078l10.219-17.533c.323-.553.647-1.107.965-1.663.487-.856.834-1.57.858-2.418a3.737 3.737 0 0 0-.696-2.276 4.035 4.035 0 0 0-1.23-1.137 3.807 3.807 0 0 0-1.34-.485 4.451 4.451 0 0 0-.385-.046H36.554l-3.05-5.24c4.334 0 8.673.028 13.006.01h.02c.854-.003 1.641-.008 2.555.167h.003a9.408 9.408 0 0 1 2.933 1.117 9.269 9.269 0 0 1 2.86 2.631c.934 1.324 1.555 3.118 1.63 4.735a9.32 9.32 0 0 1-.27 2.669c-.298 1.171-.675 1.838-1.247 2.82a465.329 465.329 0 0 0-1.01 1.729l-.536.92-.579.994-.006-.006c-2.822 4.843-5.627 9.708-8.446 14.522l-.179.306c-.347.607-.692 1.223-1.065 1.816a11.17 11.17 0 0 1-1.035 1.424 9.221 9.221 0 0 1-2.855 2.178c-.289.143-.583.27-.878.38H38.4a9.291 9.291 0 0 1-1.835.478 9.212 9.212 0 0 1-3.221-.097h-.015c-3.662-.757-5.055-2.63-6.665-5.396-3.772-6.475-7.552-12.938-11.333-19.41-.026-.043-.047-.081-.072-.126a2.583 2.583 0 0 1-.322-1.254c0-1.447 1.183-2.62 2.645-2.62ZM27.316.022h-15.62c-1.12 0-2.294-.07-3.389.04a8.83 8.83 0 0 0-.667.093C5.001.63 2.713 2.181 1.328 4.464A9.283 9.283 0 0 0 .005 9.577c.056 1.771.642 3.06 1.576 4.656l.478.817.002-.002 9.341 16.027.683 1.174 2.89 4.998c.126.218.245.454.395.655a2.632 2.632 0 0 0 2.113 1.056c1.451 0 2.628-1.166 2.628-2.602 0-.515-.151-.995-.41-1.399l-3.53-6.09v-.026L5.83 11.102l-.015-.037a6.04 6.04 0 0 1-.074-.13c-.012-.021-.071-.137-.08-.146-1.215-2.324.158-4.449 2.278-5.24.984-.368 1.696-.297 2.717-.297H24.26c2.157 3.743 5.782 9.96 8.438 14.513a2.649 2.649 0 0 0 2.312 1.345c1.46 0 2.644-1.173 2.644-2.62 0-.418-.1-.814-.276-1.165a9.415 9.415 0 0 0-.2-.366c-2.965-5.09-7.24-12.438-9.862-16.936Zm72.725 9.357h-5.79L90.53 24.125 86.642 9.379h-5.46l-3.886 14.746-3.722-14.746h-5.79l6.617 21.094h5.665l3.846-13.967 3.846 13.967h5.625L100.04 9.38Zm10.358-.532a10.612 10.612 0 0 0-4.169.847 10.707 10.707 0 0 0-3.406 2.334 10.919 10.919 0 0 0-2.295 3.523c-.551 1.344-.834 2.812-.84 4.396.007 1.584.289 3.044.84 4.382a10.713 10.713 0 0 0 2.295 3.49c.979.996 2.117 1.76 3.406 2.313 1.295.546 2.681.826 4.169.833a10.781 10.781 0 0 0 4.177-.833 10.59 10.59 0 0 0 3.418-2.314c.986-.99 1.752-2.15 2.31-3.489.558-1.338.84-2.799.847-4.382-.007-1.584-.289-3.052-.847-4.396a10.942 10.942 0 0 0-2.31-3.523 10.747 10.747 0 0 0-3.418-2.334 10.651 10.651 0 0 0-4.177-.847Zm0 17.162a4.859 4.859 0 0 1-2.646-.771c-.793-.505-1.421-1.202-1.889-2.103-.469-.9-.703-1.953-.717-3.147.014-1.222.248-2.3.717-3.223.468-.928 1.096-1.652 1.889-2.17a4.766 4.766 0 0 1 2.646-.792 4.77 4.77 0 0 1 2.647.791c.792.52 1.419 1.244 1.888 2.171.469.922.703 2 .717 3.223-.014 1.194-.248 2.246-.717 3.147-.469.9-1.096 1.598-1.888 2.103a4.862 4.862 0 0 1-2.647.77ZM134.694 8.97c-1.772-.205-3.35-.123-4.742.246-1.385.375-2.564.99-3.536 1.836a8.313 8.313 0 0 0-2.205 3.12c-.511 1.228-.766 2.593-.766 4.095v12.206h5.459V18.267c.007-1.003.248-1.856.731-2.56.476-.702 1.151-1.201 2.012-1.502.869-.3 1.882-.354 3.047-.156V8.97Zm10.069 12.615 5.293 8.888h6.947l-8.394-12.86 7.94-8.234h-7.527l-6.989 7.66V0h-5.459v30.473h5.459v-6.062l2.73-2.826Zm32.772.45c.151-1.672.082-3.201-.207-4.58-.29-1.379-.765-2.6-1.412-3.672a10.18 10.18 0 0 0-2.379-2.697 10.252 10.252 0 0 0-3.109-1.672 11.43 11.43 0 0 0-3.604-.567 10.6 10.6 0 0 0-4.239.874 11.018 11.018 0 0 0-3.467 2.389 11.227 11.227 0 0 0-2.35 3.53 11.087 11.087 0 0 0-.862 4.307c.007 1.536.297 2.97.862 4.293a11.029 11.029 0 0 0 2.35 3.503c1 1.01 2.158 1.795 3.467 2.361 1.316.56 2.73.854 4.239.86 1.772-.006 3.35-.313 4.749-.913 1.392-.602 2.557-1.434 3.501-2.513.944-1.078 1.627-2.342 2.047-3.782h-5.831a4.417 4.417 0 0 1-1.172 1.385 4.87 4.87 0 0 1-1.558.806 5.96 5.96 0 0 1-1.778.267c-.861-.007-1.646-.171-2.363-.513a5.217 5.217 0 0 1-1.848-1.434c-.51-.627-.882-1.364-1.123-2.231h16.087Zm-16.004-4.423c.268-.826.654-1.536 1.157-2.13a5.321 5.321 0 0 1 1.807-1.392 5.49 5.49 0 0 1 2.287-.492c.876.007 1.675.17 2.392.492a5.207 5.207 0 0 1 1.847 1.392c.504.594.869 1.304 1.096 2.13h-10.586ZM191.16 8.97c-1.771-.205-3.35-.123-4.742.246-1.385.375-2.564.99-3.536 1.836a8.29 8.29 0 0 0-2.205 3.12c-.51 1.228-.765 2.593-.765 4.095v12.206h5.458V18.267c.008-1.003.249-1.856.731-2.56.475-.702 1.151-1.201 2.013-1.502.868-.3 1.881-.354 3.046-.156V8.97Zm23.909 10.895c0-1.584-.283-3.044-.827-4.383a10.754 10.754 0 0 0-2.268-3.495 10.449 10.449 0 0 0-7.534-3.14 9.14 9.14 0 0 0-2.825.444 9.446 9.446 0 0 0-4.536 3.12V0h-3.39v19.865a11.6 11.6 0 0 0 .827 4.375 10.862 10.862 0 0 0 2.267 3.524 10.44 10.44 0 0 0 3.398 2.347c1.295.56 2.702.854 4.218.854a10.5 10.5 0 0 0 7.541-3.168c.975-1 1.735-2.17 2.287-3.522.551-1.345.842-2.813.842-4.41Zm-3.515 0a8.55 8.55 0 0 1-.565 3.12 7.97 7.97 0 0 1-1.537 2.505 7.052 7.052 0 0 1-2.275 1.673 6.602 6.602 0 0 1-2.778.607 6.42 6.42 0 0 1-2.763-.621 7.382 7.382 0 0 1-2.289-1.687 8.032 8.032 0 0 1-1.564-2.512 8.259 8.259 0 0 1-.579-3.085c0-1.093.201-2.11.572-3.051a7.835 7.835 0 0 1 1.55-2.492 7.26 7.26 0 0 1 2.289-1.666 6.578 6.578 0 0 1 2.784-.614c.986 0 1.916.212 2.778.607.861.396 1.62.949 2.275 1.66a7.898 7.898 0 0 1 1.537 2.484c.373.949.565 1.973.565 3.072Zm26.605.082c0-1.564-.281-3.018-.82-4.362a10.99 10.99 0 0 0-2.247-3.523 10.317 10.317 0 0 0-3.391-2.355 10.446 10.446 0 0 0-4.211-.86 10.518 10.518 0 0 0-7.575 3.167 10.826 10.826 0 0 0-2.295 3.523c-.55 1.345-.841 2.813-.841 4.41 0 1.584.287 3.053.834 4.39a10.895 10.895 0 0 0 2.282 3.502 10.47 10.47 0 0 0 3.377 2.327c1.282.553 2.66.84 4.135.84a8.777 8.777 0 0 0 2.881-.478 9.173 9.173 0 0 0 4.48-3.332v3.277h3.391V19.947Zm-3.473 0c0 1.092-.201 2.11-.572 3.05a7.852 7.852 0 0 1-1.551 2.486 7.247 7.247 0 0 1-2.289 1.672 6.577 6.577 0 0 1-2.784.615c-.999 0-1.93-.205-2.798-.6a7.068 7.068 0 0 1-2.289-1.653 7.885 7.885 0 0 1-1.544-2.484 8.385 8.385 0 0 1-.565-3.086c0-1.113.193-2.144.565-3.1a7.99 7.99 0 0 1 1.544-2.512 7.154 7.154 0 0 1 2.289-1.679 6.573 6.573 0 0 1 2.798-.614c.978 0 1.901.214 2.764.62.86.407 1.63.966 2.295 1.687a8.048 8.048 0 0 1 1.558 2.512c.38.955.579 1.98.579 3.086Zm24.124 4.178c0-1.188-.239-2.163-.683-2.922a4.904 4.904 0 0 0-1.847-1.816c-.791-.452-1.702-.8-2.736-1.051a37.551 37.551 0 0 0-3.336-.642c-1.378-.206-2.467-.43-3.253-.655-.785-.225-1.335-.5-1.654-.82-.321-.322-.478-.73-.468-1.228.01-.552.219-1.053.626-1.495.412-.445.988-.79 1.71-1.052.725-.263 1.558-.399 2.501-.402.876-.003 1.668.126 2.379.382.708.256 1.302.628 1.778 1.134.474.505.799 1.133.972 1.883h3.556c-.158-1.386-.611-2.568-1.358-3.55-.749-.984-1.746-1.73-2.991-2.252-1.242-.522-2.688-.792-4.336-.792-1.426 0-2.66.19-3.715.553-1.046.36-1.915.84-2.597 1.44-.69.607-1.2 1.277-1.537 2.014a5.38 5.38 0 0 0-.503 2.26c0 .99.194 1.822.571 2.498a4.568 4.568 0 0 0 1.647 1.687c.717.438 1.594.795 2.613 1.07 1.027.278 2.184.51 3.481.684 1.295.174 2.329.376 3.101.6.778.226 1.36.47 1.75.744.388.271.641.574.765.894.125.322.18.67.173 1.038a2.709 2.709 0 0 1-.648 1.714c-.426.519-1.04.928-1.833 1.242-.793.314-1.744.482-2.854.485-1.026.003-1.964-.165-2.805-.485-.84-.32-1.53-.77-2.081-1.365a4.222 4.222 0 0 1-1.069-2.123h-3.556c.207 1.495.73 2.779 1.572 3.85.847 1.079 1.949 1.906 3.308 2.485 1.349.574 2.895.87 4.631.874a12.143 12.143 0 0 0 3.508-.485c1.061-.317 1.986-.772 2.764-1.372a6.297 6.297 0 0 0 1.806-2.171c.428-.847.648-1.795.648-2.853Zm18.972-.206c-.579 1.236-1.406 2.192-2.467 2.868-1.061.676-2.35 1.02-3.86 1.024a7.126 7.126 0 0 1-2.571-.47 7.353 7.353 0 0 1-3.942-3.558c-.442-.86-.724-1.836-.848-2.935h17.907c0-1.502-.191-2.875-.573-4.13a11.562 11.562 0 0 0-1.613-3.331 10.773 10.773 0 0 0-2.392-2.471 10.619 10.619 0 0 0-2.942-1.544 10.03 10.03 0 0 0-3.233-.525 10.223 10.223 0 0 0-4.17.874 10.71 10.71 0 0 0-3.404 2.389 11.18 11.18 0 0 0-2.296 3.53 11.2 11.2 0 0 0-.841 4.307c0 1.556.293 2.996.848 4.328.553 1.33 1.321 2.5 2.316 3.502.99.997 2.144 1.774 3.467 2.334 1.317.56 2.75.854 4.287.854 1.647 0 3.136-.282 4.459-.826a9.325 9.325 0 0 0 3.418-2.39c.949-1.047 1.668-2.32 2.172-3.83h-3.722ZM264.3 17.736c.235-.902.584-1.71 1.055-2.418a7.551 7.551 0 0 1 1.661-1.802 7.359 7.359 0 0 1 2.033-1.126 6.446 6.446 0 0 1 2.199-.39 6.482 6.482 0 0 1 2.964.725 7.366 7.366 0 0 1 2.426 1.992c.683.859 1.172 1.864 1.475 3.019H264.3Z" fill="currentColor"/>
</svg>

