<svg xmlns="http://www.w3.org/2000/svg" width="220" height="73.175" viewBox="0 0 220 73.175">
  <g id="ロゴカラー" transform="translate(-303.565 -112.347)">
    <path id="パス_989" data-name="パス 989" d="M341.049,138.967a.1.1,0,0,1-.04-.1,11.11,11.11,0,0,1,.811-2.614c.5-.718,1.035-.957,1.538-.606s.468.932-.03,1.65a11.268,11.268,0,0,1-2.17,1.675.1.1,0,0,1-.109,0m-5.818,0a11.189,11.189,0,0,1-2.17-1.675c-.5-.718-.535-1.3-.032-1.65s1.04-.112,1.538.606a10.992,10.992,0,0,1,.814,2.614.1.1,0,0,1-.149.1m5.818-9.059a.1.1,0,0,1-.04-.1,11.147,11.147,0,0,1,.811-2.614c.5-.718,1.035-.954,1.538-.606s.468.932-.03,1.65a11.173,11.173,0,0,1-2.17,1.675.1.1,0,0,1-.109,0m-5.818,0a11.1,11.1,0,0,1-2.17-1.675c-.5-.718-.535-1.3-.032-1.65s1.04-.112,1.538.606a11.029,11.029,0,0,1,.814,2.614.1.1,0,0,1-.04.1.1.1,0,0,1-.109,0m21.15,6.09a11.136,11.136,0,0,1-2.434-1.257c-.62-.616-.759-1.183-.326-1.615s1-.3,1.62.321a11.011,11.011,0,0,1,1.269,2.425.1.1,0,0,1-.022.107.1.1,0,0,1-.107.02m5.4.313a.107.107,0,0,1-.017-.117,11.846,11.846,0,0,1,1.458-2.567c.689-.644,1.306-.77,1.757-.286s.279,1.088-.413,1.729a11.794,11.794,0,0,1-2.67,1.265.1.1,0,0,1-.114-.025m-2.717-6.323a.11.11,0,0,1-.1-.065,12.031,12.031,0,0,1-.888-2.815c0-.942.326-1.478.988-1.478s.988.537.988,1.478a11.925,11.925,0,0,1-.891,2.815.1.1,0,0,1-.1.065M320.005,136a11.076,11.076,0,0,0,2.434-1.257c.622-.616.761-1.183.328-1.615s-1-.3-1.62.321a11.015,11.015,0,0,0-1.269,2.425.1.1,0,0,0,.127.127m-5.4.313a.107.107,0,0,0,.02-.117,11.952,11.952,0,0,0-1.458-2.567c-.692-.644-1.309-.77-1.759-.286s-.279,1.088.413,1.729a11.9,11.9,0,0,0,2.67,1.265.1.1,0,0,0,.115-.025m2.72-6.323a.107.107,0,0,0,.1-.065,11.944,11.944,0,0,0,.891-2.813c0-.944-.326-1.481-.988-1.481s-.988.537-.988,1.481a12.051,12.051,0,0,0,.888,2.813.11.11,0,0,0,.1.065m20.765-8.306a11.648,11.648,0,0,1-.868-2.745c0-.919.319-1.444.963-1.444s.966.524.966,1.444a11.763,11.763,0,0,1-.868,2.745.107.107,0,0,1-.1.065.1.1,0,0,1-.095-.065m-.759,9.285h0l0,0Zm1.734,0v0h0Zm1.612.3h0Zm-4.959,0h0Zm2.252,47.414c-.042-3.908-.087-9.581-.127-15.084-1.864.671-3.175,2.847-3.359,6.455a17.137,17.137,0,0,0,1.142,7.113c.112.286.361.763.231.832s-.423-.385-.555-.661a16.255,16.255,0,0,1-1.416-7.434c.082-3.362,1.294-6.517,3.949-7.2-.007-1.034-.015-2.057-.02-3.059-2.919.691-5.367,3.041-6.343,6.907a12.891,12.891,0,0,0,.231,7.6c.1.286.266.8.124.84s-.358-.46-.478-.738a13.144,13.144,0,0,1-.4-7.9c.764-3.59,3.075-6.967,6.855-7.643-.007-1.086-.015-2.139-.02-3.143a11.55,11.55,0,0,0-8.955,8.48,12.575,12.575,0,0,0,.174,8.3c.112.283.241.807.1.855s-.328-.457-.453-.735a13.652,13.652,0,0,1-.368-8.594,12.417,12.417,0,0,1,9.49-9.355c-.007-1.17-.015-2.258-.02-3.237a14.678,14.678,0,0,0-10.777,8.42,12.788,12.788,0,0,0-1.264,8.51c.072.3.222.812.082.857s-.336-.457-.431-.745c-.8-2.435-.331-5.695,1.043-8.937a15.665,15.665,0,0,1,11.342-9.171c0-.872-.01-1.625-.012-2.226a2.671,2.671,0,0,1-1.513-.812c-7.773,2.736-14.161,9.948-14.161,18.761,0,2.616,1.065,3.99,3.7,5.257a5.7,5.7,0,0,0,1.724,4.554,8.9,8.9,0,0,0,4.561,1.8h.02c.587,2.663,3.556,3.9,6.106,3.9s5.519-1.235,6.106-3.9h.022a8.9,8.9,0,0,0,4.561-1.8A5.7,5.7,0,0,0,350.6,171.2c2.638-1.267,3.7-2.641,3.7-5.257,0-8.813-6.387-16.026-14.161-18.761a2.67,2.67,0,0,1-1.515.812c0,.6,0,1.354-.01,2.226a15.67,15.67,0,0,1,11.342,9.171c1.371,3.242,1.836,6.5,1.043,8.937-.095.288-.291.79-.43.745s.01-.562.08-.857a12.786,12.786,0,0,0-1.262-8.51,14.677,14.677,0,0,0-10.779-8.42c-.005.979-.01,2.067-.017,3.237a12.414,12.414,0,0,1,9.488,9.355,13.618,13.618,0,0,1-.368,8.594c-.124.278-.311.785-.45.735s-.007-.571.1-.855a12.588,12.588,0,0,0,.174-8.3,11.55,11.55,0,0,0-8.955-8.48c-.007,1-.012,2.057-.02,3.143,3.78.676,6.089,4.052,6.853,7.643a13.127,13.127,0,0,1-.4,7.9c-.122.278-.338.78-.478.738s.02-.554.124-.84a12.891,12.891,0,0,0,.229-7.6c-.973-3.866-3.421-6.216-6.34-6.907-.008,1-.012,2.025-.022,3.059,2.655.683,3.867,3.839,3.949,7.2a16.259,16.259,0,0,1-1.413,7.434c-.132.276-.425.728-.555.661s.117-.547.232-.832a17.139,17.139,0,0,0,1.142-7.113c-.184-3.608-1.5-5.784-3.359-6.455-.04,5.5-.087,11.176-.127,15.084-.012,1.237-.087,1.434-.217,1.434s-.2-.2-.214-1.434m5.238-33.035a17.42,17.42,0,0,0-2.374-.2,2.721,2.721,0,0,1-.236,1.034,22.5,22.5,0,0,1,3.073,1.379,8.413,8.413,0,0,1-.463-2.209m4.561,5.044a7.8,7.8,0,0,1-.423-2.49,4.658,4.658,0,0,1,.244-1.548,20.429,20.429,0,0,0-3.456-.862,6.51,6.51,0,0,0,.47,2.6,23.048,23.048,0,0,1,3.165,2.3M332.7,147.859a22.368,22.368,0,0,1,3.073-1.379,2.678,2.678,0,0,1-.236-1.034,17.387,17.387,0,0,0-2.374.2,8.52,8.52,0,0,1-.463,2.209m15.955,3.645a20.233,20.233,0,0,1,6.4,14.572l.391.082a8.541,8.541,0,0,0,1.724.248,6.79,6.79,0,0,0,2.541-.778l.01-.005.01.005a7.158,7.158,0,0,0,7.345-.872,6.42,6.42,0,0,0,2.157-5.963l0-.027.027,0c2.371-.278,3.543-2.519,3.543-4.915,0-2.36-.423-3.387-2.481-4.818a4.506,4.506,0,0,0,.391-3.449c-1-4.283-8.545-8.112-18.065-7.7a20.217,20.217,0,0,0-9.057,2.569,14.7,14.7,0,0,0-3.732,2.867,2.654,2.654,0,0,1,.876,1.357,17.24,17.24,0,0,1,2.663.211,11.531,11.531,0,0,1,2.667-1.936,17.629,17.629,0,0,1,14.728-1.208,21.545,21.545,0,0,1,4.048,1.95,14.894,14.894,0,0,1,3.4,2.82l.012.015c.04.042.212.263.371.492.311.45.261.494.236.517a.046.046,0,0,1-.04.012c-.172-.007-.811-.643-.848-.686a19.018,19.018,0,0,0-12.616-5.4c-6.226-.114-9.662,2.442-10.881,3.588a22.138,22.138,0,0,1,3.5.932,14.162,14.162,0,0,1,3.135-1.374,14.44,14.44,0,0,1,3.073-.6,11.491,11.491,0,0,1,3.705.229,18.625,18.625,0,0,1,4.775,1.831,22.794,22.794,0,0,1,3.63,2.567,17.145,17.145,0,0,1,2.964,3.327l.01.015c.037.057.211.338.358.609.3.557.249.6.219.616a.045.045,0,0,1-.04.01c-.177-.03-.445-.34-.45-.35a19.972,19.972,0,0,0-11.314-7.9,11.871,11.871,0,0,0-5.847.132,13.921,13.921,0,0,0-3.319,1.3,20.405,20.405,0,0,1,3.334,1.553,6.013,6.013,0,0,1,1.6-.606,8.379,8.379,0,0,1,3.25-.127,12.566,12.566,0,0,1,5.957,2.569,18.567,18.567,0,0,1,4.618,5.633,5.174,5.174,0,0,1,.221.636c.172.576.112.611.087.626a.057.057,0,0,1-.037,0c-.095-.025-.323-.363-.679-1l-.012-.022c-2.6-4.639-5.8-7.1-10.07-7.75a7.091,7.091,0,0,0-4.151.494,21.259,21.259,0,0,1,3.123,2.256,5.116,5.116,0,0,1,2.312.072,9.254,9.254,0,0,1,4.073,2.482,13.928,13.928,0,0,1,3.4,5.282,10.811,10.811,0,0,1,.627,2.708c0,.01.022.894-.142.9a.059.059,0,0,1-.05-.02c-.1-.089-.134-.539-.142-.673A11.988,11.988,0,0,0,362.455,154c-2.647-2.572-4.715-2.75-5.534-2.693.052.05.107.1.162.162s.119.127.172.174a31.427,31.427,0,0,1,7.348,10.942c.025.055.207.509.368.954.326.9.269.922.236.939s-.092.04-.51-.783c-.2-.39-.4-.808-.435-.889a32.369,32.369,0,0,0-7.928-11.044,17.329,17.329,0,0,0,1,4.967,13.428,13.428,0,0,0,5.016,6.631c.047.032.291.214.52.407.455.383.421.435.4.465a.046.046,0,0,1-.035.02,4.458,4.458,0,0,1-1.095-.544,14.86,14.86,0,0,1-3.892-3.968,16.18,16.18,0,0,1-1.956-4.005,11,11,0,0,1-.645-4.592l0-.04a20.116,20.116,0,0,0-3.031-2.067c-1.292,4.959,2.749,10.945,5.872,14.15.007.007.647.716.53.835a.072.072,0,0,1-.047.015c-.164,0-.714-.479-.786-.547a22.434,22.434,0,0,1-5.3-7.792c-1.172-2.947-1.49-5.21-1-7.128a20.623,20.623,0,0,0-3.431-1.6,6.738,6.738,0,0,0,.194,4.534m-20.745-4.534a20.538,20.538,0,0,0-3.431,1.6c.488,1.918.169,4.182-1,7.128a22.468,22.468,0,0,1-5.3,7.792c-.072.067-.622.547-.786.547a.071.071,0,0,1-.047-.015c-.117-.119.522-.827.527-.835,3.125-3.205,7.166-9.191,5.875-14.15a20.117,20.117,0,0,0-3.031,2.067l.005.04a11.007,11.007,0,0,1-.645,4.592,16.184,16.184,0,0,1-1.956,4.005,14.859,14.859,0,0,1-3.892,3.968,4.5,4.5,0,0,1-1.095.544.046.046,0,0,1-.035-.02c-.02-.03-.055-.082.4-.465.231-.194.475-.375.523-.407a13.438,13.438,0,0,0,5.014-6.631,17.273,17.273,0,0,0,1-4.967A32.366,32.366,0,0,0,312.1,162.8c-.04.082-.236.5-.436.889-.42.822-.475.8-.51.783s-.09-.042.236-.939c.162-.445.343-.9.368-.954a31.456,31.456,0,0,1,7.346-10.942c.055-.047.114-.112.174-.174s.109-.112.159-.162c-.816-.057-2.884.122-5.532,2.693a11.989,11.989,0,0,0-3.735,7.407c-.007.134-.04.584-.142.673a.059.059,0,0,1-.05.02c-.167-.01-.144-.894-.144-.9a11.035,11.035,0,0,1,.63-2.708,13.929,13.929,0,0,1,3.4-5.282,9.24,9.24,0,0,1,4.073-2.482,5.105,5.105,0,0,1,2.309-.072,21.393,21.393,0,0,1,3.123-2.256,7.081,7.081,0,0,0-4.148-.494c-4.272.648-7.472,3.111-10.073,7.75l-.012.022c-.356.639-.582.976-.677,1a.057.057,0,0,1-.037,0c-.025-.015-.085-.05.085-.626a5.5,5.5,0,0,1,.224-.636,18.532,18.532,0,0,1,4.618-5.633,12.571,12.571,0,0,1,5.955-2.569,8.377,8.377,0,0,1,3.25.127,5.931,5.931,0,0,1,1.6.606,20.6,20.6,0,0,1,3.334-1.553,13.831,13.831,0,0,0-3.319-1.3,11.86,11.86,0,0,0-5.845-.132,19.961,19.961,0,0,0-11.314,7.9c-.007.01-.274.32-.45.35a.045.045,0,0,1-.04-.01c-.03-.02-.082-.06.219-.616.147-.271.318-.552.358-.609l.01-.015a17.143,17.143,0,0,1,2.964-3.327,22.79,22.79,0,0,1,3.63-2.567,18.589,18.589,0,0,1,4.775-1.831,11.48,11.48,0,0,1,3.7-.229,14.434,14.434,0,0,1,3.076.6,14.047,14.047,0,0,1,3.133,1.374,22.086,22.086,0,0,1,3.5-.932c-1.222-1.145-4.658-3.7-10.881-3.588a19.018,19.018,0,0,0-12.616,5.4c-.037.042-.679.678-.849.686a.051.051,0,0,1-.042-.012c-.022-.022-.072-.067.239-.517.159-.229.331-.45.371-.492l.013-.015a14.893,14.893,0,0,1,3.4-2.82,21.545,21.545,0,0,1,4.048-1.95,17.628,17.628,0,0,1,14.728,1.208,11.656,11.656,0,0,1,2.667,1.936,17.219,17.219,0,0,1,2.663-.211,2.654,2.654,0,0,1,.876-1.357,14.7,14.7,0,0,0-3.732-2.867,20.237,20.237,0,0,0-9.06-2.569c-9.518-.412-17.06,3.416-18.062,7.7a4.505,4.505,0,0,0,.391,3.449c-2.06,1.431-2.483,2.457-2.483,4.818,0,2.4,1.174,4.636,3.546,4.915l.027,0-.008.027a6.425,6.425,0,0,0,2.16,5.963,7.158,7.158,0,0,0,7.345.872l.01-.005.01.005a6.754,6.754,0,0,0,2.54.778,8.544,8.544,0,0,0,1.722-.248l.393-.082a20.223,20.223,0,0,1,6.4-14.572,6.754,6.754,0,0,0,.194-4.534m10.274.37a1.959,1.959,0,1,0-1.961-1.958,1.96,1.96,0,0,0,1.961,1.958m18.874-10.04a21.312,21.312,0,0,1,3.9.616,5.214,5.214,0,0,1,3.222-.636c1.493.017,3.038.032,4.364-1.163a2.281,2.281,0,0,0,.946-1.861,2.393,2.393,0,0,0-1.075-1.57l-.03-.017.025-.022a2.5,2.5,0,0,0,.834-1.543,1.585,1.585,0,0,0-.532-1.205l0,0a2.445,2.445,0,0,0-3.332.2l-.022.022-.017-.025a2.3,2.3,0,0,0-1.54-.894,2.673,2.673,0,0,0-2.07,1.029,5.737,5.737,0,0,0-1.351,4.41,3.48,3.48,0,0,1-.231,1.719c-.2.325-.445.81-.448.815l-.045-.012c0-.047.085-4.78.264-5.578a5.207,5.207,0,0,1,1.625-2.47,5.28,5.28,0,0,0,1.916-3.585,2.529,2.529,0,0,0-.664-2.134,2.43,2.43,0,0,0-1.836-.467l-.032,0,.005-.035a2.816,2.816,0,0,0-.49-1.948,1.726,1.726,0,0,0-1.364-.542h0a1.731,1.731,0,0,0-1.366.542,2.809,2.809,0,0,0-.488,1.948l.005.035-.035,0a2.431,2.431,0,0,0-1.836.467,2.528,2.528,0,0,0-.662,2.134,5.278,5.278,0,0,0,1.913,3.585,5.171,5.171,0,0,1,1.625,2.47c.179.8.246,5.218.246,5.262l-.05,0a2.225,2.225,0,0,0-.5-.817,2.9,2.9,0,0,1-.266-1.722,5.554,5.554,0,0,0-1.14-4.087,2.365,2.365,0,0,0-1.829-.967,2.308,2.308,0,0,0-1.555.875l-.017.025-.02-.025a2.616,2.616,0,0,0-1.59-.957,1.655,1.655,0,0,0-1.286.522l0,0a1.587,1.587,0,0,0-.567,1.237,2.549,2.549,0,0,0,.941,1.58l.027.02-.03.02a2.246,2.246,0,0,0-.933,1.5,2.281,2.281,0,0,0,.943,1.806,4.549,4.549,0,0,0,3.7.917c1.68-.1,2.249.015,2.765.527m-10.578-2.895-.025-.015.017-.025a2.693,2.693,0,0,0,.637-1.816,1.611,1.611,0,0,0-.774-1.116l0,0a1.651,1.651,0,0,0-1.354-.286,2.627,2.627,0,0,0-1.4,1.227l-.015.027-.025-.022a2.361,2.361,0,0,0-1.727-.594,2.312,2.312,0,0,0-1.587,1.29,9,9,0,0,0-.692,4.736,8.068,8.068,0,0,1-.045,1.719c-.025.112-.381.435-.423.47a.418.418,0,0,0-.134.273h-.05v-5.337c0-.047,0-.1-.007-.152a4.544,4.544,0,0,1,.2-1.6,3.993,3.993,0,0,1,1.6-1.913,5.947,5.947,0,0,1,2.819-1.053,5.36,5.36,0,0,0,3.486-1.642,2.2,2.2,0,0,0,.585-1.8,2.349,2.349,0,0,0-1.085-1.4l-.025-.015.017-.022a2.7,2.7,0,0,0,.637-1.819,1.611,1.611,0,0,0-.774-1.116l0,0a1.66,1.66,0,0,0-1.354-.286,2.628,2.628,0,0,0-1.4,1.227l-.015.027-.025-.02a2.4,2.4,0,0,0-1.772-.606,2.256,2.256,0,0,0-1.543,1.3c-.8,1.446-.746,3.625-.712,5.069a6.447,6.447,0,0,1-.052,1.518c-.032.107-.353.313-.4.34a.4.4,0,0,0-.134.271h-.05l-.025-5.354a18.994,18.994,0,0,1,.246-2.45,5.19,5.19,0,0,1,1.625-2.47,5.284,5.284,0,0,0,1.914-3.585,2.529,2.529,0,0,0-.662-2.134,2.426,2.426,0,0,0-1.836-.47l-.032.007,0-.035a2.652,2.652,0,0,0-.468-1.858,1.752,1.752,0,0,0-1.386-.547h-.127a1.747,1.747,0,0,0-1.383.547,2.673,2.673,0,0,0-.47,1.858l.005.035-.032-.007a2.425,2.425,0,0,0-1.836.47,2.529,2.529,0,0,0-.664,2.134,5.286,5.286,0,0,0,1.916,3.585,5.207,5.207,0,0,1,1.625,2.47,18.84,18.84,0,0,1,.244,2.452l-.022,5.352h-.05a.409.409,0,0,0-.134-.271c-.042-.027-.363-.234-.4-.34a6.645,6.645,0,0,1-.05-1.518c.035-1.444.087-3.623-.714-5.069a2.254,2.254,0,0,0-1.54-1.3,2.4,2.4,0,0,0-1.772.606l-.025.02-.015-.027a2.639,2.639,0,0,0-1.4-1.227,1.656,1.656,0,0,0-1.356.288h0a1.6,1.6,0,0,0-.774,1.116,2.718,2.718,0,0,0,.635,1.819l.02.022-.027.015a2.348,2.348,0,0,0-1.082,1.4,2.189,2.189,0,0,0,.585,1.8,5.36,5.36,0,0,0,3.486,1.642,5.928,5.928,0,0,1,2.817,1.053,3.965,3.965,0,0,1,1.6,1.913,4.482,4.482,0,0,1,.2,1.6c0,.055-.005.1-.005.152v5.337h-.05a.4.4,0,0,0-.137-.273c-.04-.035-.4-.358-.423-.47a8.09,8.09,0,0,1-.042-1.719c.05-1.491.114-3.344-.694-4.736a2.3,2.3,0,0,0-1.585-1.29,2.362,2.362,0,0,0-1.727.594l-.025.022-.015-.027a2.638,2.638,0,0,0-1.4-1.227,1.654,1.654,0,0,0-1.356.286l0,0a1.6,1.6,0,0,0-.774,1.116,2.71,2.71,0,0,0,.635,1.816l.02.025-.027.015a2.339,2.339,0,0,0-1.082,1.4,2.182,2.182,0,0,0,.585,1.8,5.363,5.363,0,0,0,3.486,1.645,5.927,5.927,0,0,1,2.817,1.053,3.968,3.968,0,0,1,1.6,1.911s.085.325.134.611a2.349,2.349,0,0,1,1.485,0c.05-.286.134-.609.134-.614a3.981,3.981,0,0,1,1.6-1.911,5.946,5.946,0,0,1,2.819-1.053,5.363,5.363,0,0,0,3.486-1.645,2.19,2.19,0,0,0,.585-1.8,2.34,2.34,0,0,0-1.085-1.4m-5.8,5.893,0,0h0Zm-4.959,0h0v0Zm-3.951,8.092a6.555,6.555,0,0,0,.47-2.6,20.43,20.43,0,0,0-3.456.862,4.609,4.609,0,0,1,.241,1.548,7.725,7.725,0,0,1-.421,2.49,22.9,22.9,0,0,1,3.165-2.3M319.333,137.3a21.28,21.28,0,0,0-3.9.616,5.214,5.214,0,0,0-3.222-.636c-1.5.017-3.041.032-4.364-1.163a2.292,2.292,0,0,1-.948-1.861,2.393,2.393,0,0,1,1.077-1.57l.03-.017-.027-.022a2.5,2.5,0,0,1-.831-1.543,1.591,1.591,0,0,1,.53-1.205l0,0c1.64-1.463,3.317.181,3.334.2l.02.022.017-.025a2.314,2.314,0,0,1,1.543-.894,2.673,2.673,0,0,1,2.07,1.029,5.734,5.734,0,0,1,1.349,4.41,3.478,3.478,0,0,0,.234,1.719c.2.325.443.81.445.815l.047-.012c0-.047-.087-4.78-.266-5.578a5.184,5.184,0,0,0-1.622-2.47,5.27,5.27,0,0,1-1.916-3.585,2.522,2.522,0,0,1,.664-2.134,2.425,2.425,0,0,1,1.834-.467l.035,0,0-.035a2.809,2.809,0,0,1,.488-1.948,1.731,1.731,0,0,1,1.366-.542h0a1.726,1.726,0,0,1,1.364.542,2.816,2.816,0,0,1,.49,1.948l0,.035.032,0a2.43,2.43,0,0,1,1.836.467,2.522,2.522,0,0,1,.664,2.134,5.28,5.28,0,0,1-1.916,3.585,5.185,5.185,0,0,0-1.622,2.47c-.182.8-.246,5.218-.246,5.262l.047,0a2.333,2.333,0,0,1,.5-.817,2.873,2.873,0,0,0,.269-1.722,5.543,5.543,0,0,1,1.14-4.087,2.362,2.362,0,0,1,1.829-.967,2.293,2.293,0,0,1,1.553.875l.02.025.02-.025a2.616,2.616,0,0,1,1.588-.957,1.652,1.652,0,0,1,1.286.522l0,0a1.579,1.579,0,0,1,.567,1.237,2.55,2.55,0,0,1-.938,1.58l-.027.02.027.02a2.236,2.236,0,0,1,.936,1.5,2.284,2.284,0,0,1-.943,1.806,4.549,4.549,0,0,1-3.7.917c-1.68-.1-2.249.015-2.764.527" transform="translate(0 0)" fill="#582488"/>
    <path id="パス_990" data-name="パス 990" d="M341.062,135.883c-.776.1-.965.311-1.5,1.986l-1.244,3.969a9.108,9.108,0,0,0-.4,2.018,2.149,2.149,0,0,0,2.434,2.416c2.207,0,3.294-2.018,3.934-4.123l.829-2.59c.346-1.155.64-2.381.707-2.76.1-.587-.05-.811-.794-.916l-.448-.07a.337.337,0,0,1,.07-.483c.707.035,1.329.052,2.07.052.689,0,1.224-.017,1.916-.052a.335.335,0,0,1,0,.483l-.448.087a1.408,1.408,0,0,0-1.192.776,23.929,23.929,0,0,0-1,2.881l-.846,2.692a7.761,7.761,0,0,1-1.986,3.608,5.174,5.174,0,0,1-3.364,1.192c-2.349,0-3.9-.916-3.832-3.038a6.955,6.955,0,0,1,.346-1.829l1.346-4.315c.465-1.5.5-1.881-.416-2l-.431-.052a.328.328,0,0,1,.1-.483c.846.035,1.555.052,2.381.052.846,0,1.52-.017,2.279-.052.122.1.122.416-.035.483Z" transform="translate(48.107 34.104)" fill="#231815"/>
    <path id="パス_991" data-name="パス 991" d="M347.9,138.065a4.624,4.624,0,0,1-.311,1.364c-.311.846-1.14,2.727-1.416,3.416-.085.207-.1.346.035.346a3.968,3.968,0,0,0,1.587-1.174c.209-.035.311.1.311.311a4.369,4.369,0,0,1-3.314,2.055.628.628,0,0,1-.585-.552,2.737,2.737,0,0,1,.311-1.02c.448-1.035,1.035-2.466,1.448-3.486a3.268,3.268,0,0,0,.276-1.035c0-.154-.035-.294-.241-.294-.294,0-1.035.535-1.829,1.538a25.532,25.532,0,0,0-2.623,4.574.586.586,0,0,1-.587.276c-.311,0-.916-.1-.759-.587.067-.224,1.655-4.506,1.829-4.989.1-.276.137-.518-.07-.518a3.177,3.177,0,0,0-1.483.9.272.272,0,0,1-.276-.276,3.948,3.948,0,0,1,2.969-1.811c.62,0,.672.518.518.9l-1.053,2.675h.067c1.087-1.535,2.675-3.571,4.16-3.571a.923.923,0,0,1,1.035.965" transform="translate(54.366 36.737)" fill="#231815"/>
    <path id="パス_992" data-name="パス 992" d="M346.712,136.687a1.212,1.212,0,0,1,1.174-1.259.76.76,0,0,1,.829.846,1.216,1.216,0,0,1-1.175,1.259.792.792,0,0,1-.829-.846m-.965,8.647c-.07.172-.087.328.052.328a4.6,4.6,0,0,0,1.724-1.192.3.3,0,0,1,.294.346,5.316,5.316,0,0,1-3.451,2.053.676.676,0,0,1-.552-.535,1.655,1.655,0,0,1,.157-.672l1.913-4.539c.07-.174.07-.276-.032-.276a4.316,4.316,0,0,0-1.486.931.274.274,0,0,1-.241-.346,5.3,5.3,0,0,1,3.175-1.846.663.663,0,0,1,.57.485,1.289,1.289,0,0,1-.189.742Z" transform="translate(59.757 34.249)" fill="#231815"/>
    <path id="パス_993" data-name="パス 993" d="M346.236,143.3a4.387,4.387,0,0,1,.346-1.518l1.155-2.934c.122-.294.1-.552-.067-.552a3.576,3.576,0,0,0-1.538,1.137.331.331,0,0,1-.309-.309,4.3,4.3,0,0,1,3.071-2.02.793.793,0,0,1,.724,1,5.525,5.525,0,0,1-.309.951l-1.07,2.762a3.6,3.6,0,0,0-.276,1,.463.463,0,0,0,.483.5,2.991,2.991,0,0,0,1.724-1.259,5.5,5.5,0,0,0,1.14-2.762,3.369,3.369,0,0,0-.189-1.294.912.912,0,0,1,.9-.9c.742.07.878.724.861,1.192-.017,1.277-1.364,3.588-2.934,4.85a4.315,4.315,0,0,1-2.777,1.242c-.587,0-.933-.689-.933-1.087" transform="translate(62.74 36.737)" fill="#231815"/>
    <path id="パス_994" data-name="パス 994" d="M352.023,138.411a5.9,5.9,0,0,0-1.242,2.21,4.546,4.546,0,0,0,1.968-1.174,2.179,2.179,0,0,0,.637-1.294c0-.224-.1-.43-.326-.43-.241,0-.6.207-1.038.689m-3.364,4.091a6.129,6.129,0,0,1,2.451-4.469,4.032,4.032,0,0,1,2.416-.933,1.314,1.314,0,0,1,1.381,1.192c0,1.553-2.346,2.4-4.262,2.916a3.51,3.51,0,0,0-.157,1.122c0,.637.276.983.759.983a3.216,3.216,0,0,0,2.038-1.087.292.292,0,0,1,.276.346,4,4,0,0,1-3.28,1.811,1.666,1.666,0,0,1-1.622-1.881" transform="translate(66.951 36.737)" fill="#231815"/>
    <path id="パス_995" data-name="パス 995" d="M354.261,138.894l-.6,1.777h.1A19.3,19.3,0,0,1,355.3,138.2c.552-.692,1.018-1.1,1.535-1.1.553,0,.794.483.794.965,0,.535-.4,1.381-.931,1.381-.207,0-.276-.189-.346-.5-.07-.346-.172-.518-.346-.518-.206,0-.6.378-1.172,1.329a38.948,38.948,0,0,0-2.073,4.35c-.085.206-.309.276-.585.276-.346,0-.951-.1-.794-.587.378-1.122,1.242-3.521,1.724-5.091.087-.276.07-.45-.1-.45-.381,0-.933.485-1.346.968a.278.278,0,0,1-.276-.346,3.146,3.146,0,0,1,2.381-1.777c.931,0,.776,1,.5,1.794" transform="translate(70.952 36.737)" fill="#231815"/>
    <path id="パス_996" data-name="パス 996" d="M353.554,143.261c0-.381.276-.829.657-.829a.557.557,0,0,1,.378.241,1.85,1.85,0,0,0,1.311.776.658.658,0,0,0,.692-.62,3.063,3.063,0,0,0-.863-1.588A2.942,2.942,0,0,1,355,139.6a2.423,2.423,0,0,1,1-1.849,2.629,2.629,0,0,1,1.553-.654,1.313,1.313,0,0,1,1.381,1.189.715.715,0,0,1-.552.727.453.453,0,0,1-.378-.206c-.485-.552-.761-.744-1.209-.744a.561.561,0,0,0-.587.535c0,.57.57,1.07.881,1.486a2.7,2.7,0,0,1,.741,1.829,2.364,2.364,0,0,1-.966,1.777,3.033,3.033,0,0,1-1.933.692,1.309,1.309,0,0,1-1.381-1.122" transform="translate(74.22 36.737)" fill="#231815"/>
    <path id="パス_997" data-name="パス 997" d="M358.809,136.687a1.212,1.212,0,0,1,1.174-1.259.76.76,0,0,1,.829.846,1.216,1.216,0,0,1-1.174,1.259.792.792,0,0,1-.828-.846m-.965,8.647c-.07.172-.087.328.052.328a4.6,4.6,0,0,0,1.724-1.192.3.3,0,0,1,.294.346,5.316,5.316,0,0,1-3.451,2.053.676.676,0,0,1-.552-.535,1.656,1.656,0,0,1,.157-.672l1.916-4.539c.067-.174.067-.276-.035-.276a4.316,4.316,0,0,0-1.485.931.274.274,0,0,1-.241-.346,5.3,5.3,0,0,1,3.175-1.846.663.663,0,0,1,.57.485,1.29,1.29,0,0,1-.189.742Z" transform="translate(77.718 34.249)" fill="#231815"/>
    <path id="パス_998" data-name="パス 998" d="M361.316,139.092l-1.553,4.469c-.1.276-.07.416.1.416a5.385,5.385,0,0,0,1.9-1.451.292.292,0,0,1,.276.381c-.759,1.14-2.451,2.364-3.556,2.364a.637.637,0,0,1-.62-.587,2.95,2.95,0,0,1,.207-.948l1.588-4.643h-1.311a.452.452,0,0,1,.172-.552l1.451-.276,1.1-1.675a.751.751,0,0,1,.413-.085.638.638,0,0,1,.552.224l-.483,1.6h1.279a.546.546,0,0,1-.137.759Z" transform="translate(80.621 35.85)" fill="#231815"/>
    <path id="パス_999" data-name="パス 999" d="M364.811,140.136a21.2,21.2,0,0,1-.224,3.593h.07a16.263,16.263,0,0,0,1.518-3.867,13.94,13.94,0,0,0,.381-2.105c.032-.518.259-.622.5-.622a1.342,1.342,0,0,1,.637.174.483.483,0,0,1,.226.448,15.375,15.375,0,0,1-2.038,5.143,25.409,25.409,0,0,1-2.934,4.228,4.045,4.045,0,0,1-2.9,1.657,1.049,1.049,0,0,1-1.122-.916.89.89,0,0,1,.863-.965.691.691,0,0,1,.587.363c.224.291.361.463.6.463a1.452,1.452,0,0,0,.968-.43,4.646,4.646,0,0,0,1.053-2.07,13.192,13.192,0,0,0,.294-3.8c-.035-1.983-.259-2.969-.639-2.969-.363,0-.742.674-1.053,1.329a.307.307,0,0,1-.448-.172c.326-1.053,1.1-2.521,2.294-2.521.916,0,1.329,1.262,1.363,3.036" transform="translate(82.192 36.737)" fill="#231815"/>
    <path id="パス_1000" data-name="パス 1000" d="M367.344,142.743a9.641,9.641,0,0,0,1.448-4.088c0-.468-.067-.933-.553-.933-.309,0-.672.189-1.12.759a8.975,8.975,0,0,0-1.709,4.384c0,.518.224.9.622.9s.794-.276,1.311-1.02m-1.71-4.486a3.628,3.628,0,0,1,2.623-1.157,2.022,2.022,0,0,1,2.122,2.349,5.571,5.571,0,0,1-1.69,3.745,3.742,3.742,0,0,1-2.727,1.189,2.024,2.024,0,0,1-2.14-2.259,5.912,5.912,0,0,1,1.811-3.867" transform="translate(89.463 36.737)" fill="#231815"/>
    <path id="パス_1001" data-name="パス 1001" d="M372.478,141.27c-.587,1.727-1.381,4.867-1.916,6.559a10.256,10.256,0,0,1-1.329,2.934,3.237,3.237,0,0,1-2.346,1.189,1.336,1.336,0,0,1-1.451-1.155.745.745,0,0,1,.657-.811.6.6,0,0,1,.535.343c.328.518.707.863,1,.863.259,0,.5-.276.846-1.466.587-2.073,1.416-5.42,2.277-8.458h-1.535a.555.555,0,0,1,.207-.759h1.538a12.111,12.111,0,0,1,1.483-3.538,3.981,3.981,0,0,1,3.3-2c1.07,0,1.727.622,1.727,1.329a1.12,1.12,0,0,1-.933,1.174c-.241,0-.346-.1-.381-.346-.137-1.172-.637-1.535-.983-1.535-.381,0-.794.43-1.157,1.157a22.59,22.59,0,0,0-1.329,3.762h2.055a.574.574,0,0,1-.209.759Z" transform="translate(91.854 33.567)" fill="#231815"/>
    <path id="パス_1002" data-name="パス 1002" d="M380.21,135.649c.776,0,1.018-.1,1.329-.413a.393.393,0,0,1,.43.067A15.389,15.389,0,0,0,380.951,138a.376.376,0,0,1-.57,0c.07-.707.07-1.259-.259-1.448a2.549,2.549,0,0,0-1.242-.224h-.951c-.518,0-.533.032-.724.62l-2.364,7.612c-.483,1.5-.518,1.881.4,1.968l.727.067a.425.425,0,0,1-.1.5c-1.122-.035-1.846-.052-2.675-.052s-1.518.017-2.468.052c-.137-.1-.137-.433.035-.5l.692-.085c.776-.07.948-.276,1.483-1.951l2.381-7.612c.189-.587.174-.62-.413-.62h-.881a2.974,2.974,0,0,0-1.486.291A4.118,4.118,0,0,0,371.2,138a.381.381,0,0,1-.518-.172,28.1,28.1,0,0,0,1.3-2.588c.067-.1.274-.1.413-.035-.035.343.172.448,1.294.448Z" transform="translate(99.549 33.839)" fill="#231815"/>
    <path id="パス_1003" data-name="パス 1003" d="M373.182,143.261c0-.381.276-.829.657-.829a.557.557,0,0,1,.378.241,1.85,1.85,0,0,0,1.311.776.658.658,0,0,0,.692-.62,3.064,3.064,0,0,0-.863-1.588,2.942,2.942,0,0,1-.724-1.64,2.423,2.423,0,0,1,1-1.849,2.629,2.629,0,0,1,1.553-.654,1.313,1.313,0,0,1,1.381,1.189.715.715,0,0,1-.552.727.46.46,0,0,1-.381-.206c-.483-.552-.759-.744-1.207-.744a.561.561,0,0,0-.587.535c0,.57.57,1.07.881,1.486a2.7,2.7,0,0,1,.742,1.829,2.364,2.364,0,0,1-.965,1.777,3.034,3.034,0,0,1-1.933.692,1.309,1.309,0,0,1-1.381-1.122" transform="translate(103.362 36.737)" fill="#231815"/>
    <path id="パス_1004" data-name="パス 1004" d="M377.472,138.792c.1-.276.087-.448-.052-.448-.346,0-1.122.672-1.587,1.155-.172-.032-.311-.137-.276-.343a4.956,4.956,0,0,1,3.28-2.055.675.675,0,0,1,.657.622,1.742,1.742,0,0,1-.1.465l-1.779,4.437c-.119.311-.05.483.122.483.207,0,.657-.363,1.259-.933a18.326,18.326,0,0,0,3.245-5,1.5,1.5,0,0,1,.518-.07,1.1,1.1,0,0,1,.863.346c-.431,1.122-1.329,3.382-2.035,5.263-.087.276-.087.468.085.468a4.523,4.523,0,0,0,1.657-1.262.274.274,0,0,1,.311.311,4.993,4.993,0,0,1-3.347,2.157.544.544,0,0,1-.52-.759l1.07-2.779H380.8c-1.087,1.451-3.108,3.538-4.248,3.538a.839.839,0,0,1-.828-.829,2.493,2.493,0,0,1,.209-.846Z" transform="translate(106.828 36.737)" fill="#231815"/>
    <path id="パス_1005" data-name="パス 1005" d="M384,143.2c.692-.465,1.174-1.018,1.174-1.466a.469.469,0,0,0-.518-.468,3.64,3.64,0,0,0-2.105,1.331,4.54,4.54,0,0,0-.9,1.259c-.017.1,0,.241.172.241a4.717,4.717,0,0,0,2.175-.9m3-1.812a2.31,2.31,0,0,1-1.053,1.709,5.522,5.522,0,0,1-2.262,1.035c-.1.035-.1.172-.067.311a8.668,8.668,0,0,0,.5,1.448c.154.328.294.5.5.5.276,0,.689-.378,1.14-.861a.258.258,0,0,1,.309.241,2.938,2.938,0,0,1-2.277,1.777c-.416,0-.741-.276-1-.794a10.353,10.353,0,0,1-.622-1.794c-.07-.224-.206-.346-.416-.311-.343.035-.448.119-.654.639l-.794,1.983a.6.6,0,0,1-.587.276c-.311,0-.933-.1-.794-.587l3.245-9.56c.311-.933.311-1.1,0-1.259l-.416-.209a.267.267,0,0,1,.035-.343,12.843,12.843,0,0,1,2.66-.622.188.188,0,0,1,.154.137c-.207.622-.45,1.192-.846,2.366l-1.727,5.021h.035c.933-.965,2.038-2.227,3.556-2.227,1,0,1.381.622,1.381,1.122" transform="translate(111.823 33.569)" fill="#231815"/>
    <path id="パス_1006" data-name="パス 1006" d="M384.183,138.792c.1-.276.087-.448-.052-.448-.346,0-1.122.672-1.588,1.155-.172-.032-.311-.137-.276-.343a4.956,4.956,0,0,1,3.28-2.055.675.675,0,0,1,.657.622,1.743,1.743,0,0,1-.1.465l-1.777,4.437c-.122.311-.052.483.119.483.207,0,.657-.363,1.259-.933a18.326,18.326,0,0,0,3.245-5,1.5,1.5,0,0,1,.518-.07,1.1,1.1,0,0,1,.863.346c-.43,1.122-1.329,3.382-2.035,5.263-.087.276-.087.468.085.468a4.522,4.522,0,0,0,1.657-1.262.274.274,0,0,1,.311.311,4.993,4.993,0,0,1-3.349,2.157.543.543,0,0,1-.518-.759l1.072-2.779h-.035c-1.087,1.451-3.108,3.538-4.247,3.538a.839.839,0,0,1-.828-.829,2.494,2.494,0,0,1,.209-.846Z" transform="translate(116.816 36.737)" fill="#231815"/>
    <path id="パス_1007" data-name="パス 1007" d="M388.869,142.962a5.69,5.69,0,0,0-1.364,3.158c0,.535.241.811.483.811a2.879,2.879,0,0,0,1.52-1.087,9.149,9.149,0,0,0,2.172-4.143c0-.43-.241-.6-.518-.6-.448,0-1.311.6-2.294,1.864m2.675,2.64a5.7,5.7,0,0,1-3.934,1.951,1.53,1.53,0,0,1-1.692-1.64,9.377,9.377,0,0,1,.759-3l2.122-5.643c.311-.811.328-1.053.052-1.224l-.415-.276a.269.269,0,0,1,.07-.311,11.8,11.8,0,0,1,2.658-.485.21.21,0,0,1,.122.174c-.328.829-.587,1.448-.933,2.329l-2.105,5.472h.035c1.035-1.486,2.227-2.675,3.434-2.675a1.514,1.514,0,0,1,1.622,1.64,5.725,5.725,0,0,1-1.794,3.693" transform="translate(122.257 33.567)" fill="#231815"/>
    <path id="パス_1008" data-name="パス 1008" d="M392.738,139.016a7.975,7.975,0,0,0-1.9,4.141c0,.192.067.346.206.346a5.192,5.192,0,0,0,1.759-1.381,9.906,9.906,0,0,0,1.9-3.245.774.774,0,0,0-.759-.6c-.378,0-.654.157-1.207.744m2.864-1.986a.861.861,0,0,1,.346-.07c.328,0,.811.1.966.416-.483,1.122-1.588,3.969-2.227,5.763-.085.226-.017.311.087.311a3.918,3.918,0,0,0,1.727-1.122.29.29,0,0,1,.276.328,4.838,4.838,0,0,1-3.21,1.933.555.555,0,0,1-.57-.552,2.255,2.255,0,0,1,.172-.707l.622-1.64h-.052c-1.209,1.64-2.934,2.9-3.934,2.9a.976.976,0,0,1-.933-1.035,7.84,7.84,0,0,1,2.018-3.919,8,8,0,0,1,2.16-1.707,2.761,2.761,0,0,1,1.344-.381,1.061,1.061,0,0,1,.4.122,1.486,1.486,0,0,1,.363.326Z" transform="translate(126.652 36.53)" fill="#231815"/>
    <path id="パス_1009" data-name="パス 1009" d="M336.076,147.009l1.142-.214,2.745-.535,2.14-.428V136.1h-1.426c-1.284,0-2.605.072-3.887.107l-.821-1.212c1.57.072,3.173.142,4.778.142h5.882l1.963-2.317,2.638,2.21c.57.5.463,1.07-.321,1.07h-5.633v9.057l1.533-.321c1.6-.356,3.21-.749,4.777-1.142.144-1.033.286-2.1.358-3.173a39.083,39.083,0,0,0,.142-4.564l-.107-2.354-.072-1.247,3.282,1.461h5.133l.784-1.354c-.963.391-2.1.356-2.5-.786-.356-.96-.356-2.03-.749-2.993a9.555,9.555,0,0,0-.963-1.677h-1.389a25.322,25.322,0,0,1-2.782,3.068,15.8,15.8,0,0,1-2.854,2.244c-.356.179-.642-.07-.391-.428.5-.677,1.033-1.354,1.533-2.068.607-.926,1.177-1.854,1.747-2.817h-7.808c1.391,1.07,3.245,2.175,3.066,4.173-.142,1.926-2.565,2.458-3.1,1.033-.286-.856-.251-1.747-.465-2.6a9.827,9.827,0,0,0-1.067-2.6h-.714a22.569,22.569,0,0,1-5.347,5.671c-.072.07-1.035.712-.928.142.035-.321.714-1.07.891-1.319a28.968,28.968,0,0,0,2.389-4.066,33.187,33.187,0,0,0,1.926-5.171c.214-.746.356-1.533.535-2.317l3.531,1.533c.853.358,1.177,1.177.177,1.57l-.963.356c-.321.642-.677,1.284-1.033,1.926l-.463.712h4.705l2.21-2.638,2.961,2.638a39.156,39.156,0,0,0,2.14-6.024l3.387,1.819c.891.463.891,1.281-.107,1.568l-.928.286c-.356.57-.712,1.14-1.07,1.747l-.428.6h7.238l2.389-2.745,3.1,2.745c.5.428.393.963-.321.963h-9.911c2,1.177,3.815,2.426,2.886,4.957l2.461,2.461c.6.642.712,1.461-.214,1.782l-.5.144v11.73c0,.428.072.784.572.856.535.035,1.354.107,1.747-.321a5.209,5.209,0,0,0,.784-1.6c.249-.714.535-1.426.784-2.14l.5-1.461c.07-.214.177-.714.463-.749.249-.072.249.249.249.428v.391l-.107,1.6-.107,1.463c-.035.5-.214,1.568.144,2,.535.642,1.675,1.142,1.14,2.14-.428.819-1.64.926-2.461,1a28.425,28.425,0,0,1-4.277.142c-1.819-.035-2.638-.391-2.638-2.351V134.744h-5.1c.035,1.747.07,3.459-.037,5.168,2.354.679,5.312,1.963,4.708,4.957a1.558,1.558,0,0,1-1.284,1.391c-1.07.142-1.57-.784-1.784-1.64l-.463-1.6a4.593,4.593,0,0,0-1.247-2.175,15.745,15.745,0,0,1-1.356,6.275c-1.533,3.28-4.743,5.312-8.094,6.417-.214.072-1.033.393-1.033-.107,0-.284.642-.535.819-.642a11.481,11.481,0,0,0,6.134-8.343l-1.284.642-2.745,1.249-2.924,1.391c-1.284.57-2.6,1.1-3.887,1.64l-.393.891c-.177.393-.356.821-.856.891-.463.072-.784-.284-1.033-.642Z" transform="translate(48.093 11.26)" fill="#231815"/>
    <path id="パス_1010" data-name="パス 1010" d="M377.55,137.077a29.779,29.779,0,0,1-4.135,6.883,15.488,15.488,0,0,1-2.745-3.673,14.99,14.99,0,0,1-1.356-3.21Zm-9.3,0a28.861,28.861,0,0,0,1.319,4.35,20.913,20.913,0,0,0,2.389,4.173,24.983,24.983,0,0,1-2.889,2.638,26.132,26.132,0,0,1-5.347,3.175c-.821.391-1.712.677-2.5,1.1-.179.107-.393.321-.214.535.249.321,2.71-.428,2.924-.5a27.9,27.9,0,0,0,9.662-4.919,22.326,22.326,0,0,0,7.7,5.6,8.617,8.617,0,0,1,3.173-3.421,42.745,42.745,0,0,1-5.206-1.784,20.5,20.5,0,0,1-3.708-2.247c.677-.819,1.354-1.6,2-2.458a36.258,36.258,0,0,0,2.284-3.459l.57-1,.749-.107c1.319-.179,1.319-.928.5-1.854l-2.531-2.854-1.6,2.105H374.3v-7.915h4.85l-.428,1c-.535,1.247-1.177,2.458-1.782,3.673a1.424,1.424,0,0,0-.249.749c.07.57,1.5-.679,1.5-.679l1.107-.891,1.354-1.035.856-.677,1.319.037c.428,0,1.035,0,1.284-.428.249-.465-.107-1.07-.393-1.391l-2.959-3.424-1.712,2.14H374.3v-4.671l.572-.321a1.124,1.124,0,0,0,.677-.821.837.837,0,0,0-.856-.819l-3.815-.358v6.99h-4.529l-3.922-1.926a109.16,109.16,0,0,1,.142,13.228c-.249,4.173-.963,8.45-3.317,11.946l-1,1.5c-.142.251-.284.642.214.572.428-.037,1.284-.928,1.57-1.177a16.019,16.019,0,0,0,4.564-6.917,32.783,32.783,0,0,0,1.14-7.452Zm-14.263-15.189c0,.214.321.393.463.5a5.752,5.752,0,0,1,1.57,2c.532,1,.425,2.175.926,3.138.535,1.07,2.175.714,2.782-.072,1.14-1.391,0-3.421-1.212-4.35a8.248,8.248,0,0,0-4.1-1.461c-.144,0-.428.035-.428.249m1.461,13.228c1.6-1,.928-3.494-.284-4.529a6.977,6.977,0,0,0-4.066-1.461c-.249,0-.642.142-.321.391a5.432,5.432,0,0,1,2,2.924l.5,1.819a1.378,1.378,0,0,0,2.175.856m-4.028,7.345c-.391,0-.784.428-.391.749.319.321,1.247.284,1.889.856a4.215,4.215,0,0,1,.784,3.066l-.286,2.175a2.86,2.86,0,0,0,.465,2.212,2.152,2.152,0,0,0,2.068.391c2.247-.677.856-4.1.535-5.561a5.848,5.848,0,0,1,.07-3.494l5.529-15.4c.142-.463-.428-.784-.679-.321l-7.771,15.512a11.413,11.413,0,0,0-2.212-.179m14.4-14.226h5.064v7.915H365.82Z" transform="translate(69.886 11.813)" fill="#231815"/>
    <path id="パス_1011" data-name="パス 1011" d="M393.525,127.449l3.317,2.638c.677.535.463,1.142-.428,1.142H381.9a34.2,34.2,0,0,0,1.961,5.24,21.9,21.9,0,0,0,4.35,5.885,28.968,28.968,0,0,0,10.162,5.954,9.194,9.194,0,0,0-4.387,3.1,28.91,28.91,0,0,1-5.382-4.17,26.274,26.274,0,0,1-5.992-9.983,32.316,32.316,0,0,1-1.212-5.1,29.387,29.387,0,0,1-2.389,9.344,20.709,20.709,0,0,1-10.2,9.52c-.321.142-3.175,1.5-3.6,1.14-.286-.249.177-.535.356-.642a42.477,42.477,0,0,0,5.064-3.28c5.133-4.1,7.022-10.7,7.487-17.007H372.2c-2.068,0-4.1.107-6.169.179l-.819-1.321,3.815.107,3.173.072h6.027a83.477,83.477,0,0,0-.214-9.876l3.922.249c.57.035,1.1.072,1.284.677.142.535-.214.856-.642,1.07l-.821.428c0,2.5-.035,4.992-.214,7.452H391.1Z" transform="translate(91.366 11.921)" fill="#231815"/>
    <path id="パス_1012" data-name="パス 1012" d="M395.375,127.915c-1.568.142-1.889-2.177-2.21-3.245a7.754,7.754,0,0,0-2-3.1c-.107-.107-1.177-1.035-.251-.928a7.107,7.107,0,0,1,2.068.714,6.377,6.377,0,0,1,3.924,3.566c.356,1.14-.144,2.889-1.535,3m-8.983-.572L386,125.668a10.822,10.822,0,0,0-.677-1.784c-.214-.391-.465-.891-.714-1.247l-.607-.856c-.211-.286-.428-.749.144-.607a11.475,11.475,0,0,1,3.528,1.819,4.633,4.633,0,0,1,1.891,3.352c.07,2.424-2.71,3.031-3.173,1m-2.177,3.21a7.8,7.8,0,0,1-.891,4.208c-.712,1.033-1.889,1.889-3.173,1.247a1.818,1.818,0,0,1-.356-2.852l1.174-1.1a5.93,5.93,0,0,0,1.856-4.1c0-.214,0-.928.391-.57a6.247,6.247,0,0,1,.821,2.244h15.33a36.166,36.166,0,0,0,3.5-9.306l3.421,1.963c.928.533.784,1.067-.142,1.461l-.677.249-.856,1c-1.035,1.212-2.068,2.424-3.138,3.635l-.856,1h6.241l1.533-2.1,2.672,3.28c.893,1.035.893,1.784-.677,1.819l-1.177.035-.642.465-1.281.891a13.3,13.3,0,0,1-2.212,1.461c-.214,0-.035-.356,0-.463.356-.784.714-1.533,1.07-2.282.286-.714.57-1.426.819-2.175Zm-5.454,10.839,3.745.107,3.245.072h7.7v-4.352l3.28.714c.891-.784,1.712-1.568,2.531-2.424H389.03l-2.247.07-1.854.037-.677-1.177c1.605.035,3.207.142,4.778.142h10.911l1.854-1.889,2.531,2.5c.856.856.393,1.533-.712,1.5l-1.035-.037-1.426.677c-1.5.714-3,1.391-4.529,2.07v2.175h9.2l2.354-2.71,3.207,2.458c.5.428.714,1.249-.142,1.249H396.624v8.022c0,1.177-1.712,1.782-2.568,2.1-1.07.428-1.889.393-1.889-.891,0-.463-.107-.6-.535-.784-1.249-.428-2.5-.821-3.745-1.249-.177-.07-.5-.177-.391-.428.07-.214.428-.142.6-.142h.963l1.426.035,1.391.037a2.371,2.371,0,0,0,1.319-.107c.251-.144.251-.535.251-.784v-5.813h-7.7c-2.068,0-4.138.107-6.206.179Z" transform="translate(111.605 11.813)" fill="#231815"/>
  </g>
</svg>
